<?xml version="1.0" standalone="no"?>
<!DOCTYPE svg PUBLIC "-//W3C//DTD SVG 20010904//EN"
 "http://www.w3.org/TR/2001/REC-SVG-20010904/DTD/svg10.dtd">
<svg version="1.0" xmlns="http://www.w3.org/2000/svg"
 width="585.000000pt" height="585.000000pt" viewBox="0 0 585.000000 585.000000"
 preserveAspectRatio="xMidYMid meet">
<metadata>
Created by potrace 1.14, written by Peter Selinger 2001-2017
</metadata>
<g transform="translate(0.000000,585.000000) scale(0.100000,-0.100000)"
fill="#000000" stroke="none">
<path d="M4480 5619 c-72 -29 -110 -101 -125 -234 -10 -86 -59 -322 -95 -449
-97 -345 -270 -673 -548 -1038 -73 -96 -92 -109 -92 -64 0 44 -50 219 -80 285
-81 172 -248 308 -503 407 l-97 38 -99 166 c-54 91 -109 185 -122 210 -30 56
-68 77 -110 60 -40 -17 -53 -44 -45 -98 l6 -46 -38 55 c-36 52 -40 54 -82 54
-39 0 -47 -4 -66 -32 l-22 -33 -12 30 c-32 78 -103 105 -148 57 -30 -32 -28
-66 8 -137 17 -33 30 -62 30 -65 0 -3 -17 8 -38 24 -20 17 -51 33 -67 36 -63
12 -116 -48 -96 -107 10 -27 9 -29 -7 -23 -62 27 -107 16 -129 -29 -12 -26
-13 -41 -6 -62 l10 -29 -44 4 c-36 2 -49 -1 -70 -20 -21 -21 -24 -31 -20 -71
l4 -47 -44 32 c-25 17 -47 35 -49 39 -3 5 -23 8 -44 8 -30 0 -43 -6 -59 -26
-30 -39 -26 -69 17 -117 59 -66 70 -85 29 -49 -47 40 -88 42 -122 7 -31 -30
-31 -59 -1 -110 l24 -39 -39 -17 c-44 -20 -58 -55 -41 -101 9 -25 7 -32 -14
-53 -26 -26 -32 -72 -14 -106 10 -17 7 -19 -25 -19 -42 0 -85 -36 -85 -72 0
-27 15 -51 78 -125 37 -44 41 -53 25 -53 -31 0 -63 -42 -63 -81 0 -39 20 -66
238 -324 90 -106 140 -173 156 -213 67 -157 179 -313 298 -411 129 -108 335
-194 499 -210 l67 -6 -93 -155 c-259 -435 -509 -917 -541 -1042 -13 -54 -18
-108 -17 -208 0 -132 45 -588 64 -663 6 -21 26 -56 45 -77 87 -96 245 -75 304
40 25 49 25 77 0 293 -34 306 -42 430 -31 494 16 89 144 342 389 773 103 181
317 532 353 579 l19 23 11 -28 c67 -178 94 -392 74 -607 -7 -71 -5 -82 20
-132 38 -78 91 -109 179 -103 150 9 205 127 191 408 -13 261 -44 401 -145 653
l-59 148 55 80 c30 44 68 108 86 142 17 36 87 128 163 217 615 723 857 1153
999 1775 59 261 78 431 55 492 -14 38 -57 83 -96 99 -37 16 -116 17 -153 3z
m-1665 -1416 c113 -35 251 -105 311 -157 91 -80 127 -204 128 -446 1 -218 -17
-278 -117 -398 -81 -98 -187 -245 -187 -260 0 -19 -64 -65 -140 -101 -64 -31
-87 -36 -160 -39 -250 -10 -455 139 -565 411 -99 243 -80 469 59 705 46 78 56
88 95 102 28 9 71 40 116 82 l71 67 65 -1 c66 -1 130 22 159 56 15 19 46 15
165 -21z"/>
<path d="M2555 3835 c-40 -40 -32 -96 17 -121 63 -32 128 5 128 72 0 67 -96
99 -145 49z"/>
<path d="M2865 3638 c-49 -26 -61 -90 -25 -123 26 -24 25 -51 -6 -143 -45
-136 -97 -178 -203 -166 -55 6 -61 4 -85 -19 -25 -25 -32 -59 -20 -92 11 -28
60 -45 132 -45 97 0 156 23 218 84 59 60 94 129 124 246 37 146 18 220 -67
256 -38 17 -42 17 -68 2z"/>
<path d="M2244 3531 c-41 -25 -56 -67 -38 -109 22 -54 92 -55 145 -2 36 35 37
73 4 105 -29 30 -68 32 -111 6z"/>
</g>
</svg>
