<?xml version="1.0" standalone="no"?>
<!DOCTYPE svg PUBLIC "-//W3C//DTD SVG 20010904//EN"
 "http://www.w3.org/TR/2001/REC-SVG-20010904/DTD/svg10.dtd">
<svg version="1.0" xmlns="http://www.w3.org/2000/svg"
 width="585.000000pt" height="585.000000pt" viewBox="0 0 585.000000 585.000000"
 preserveAspectRatio="xMidYMid meet">
<metadata>
Created by potrace 1.14, written by Peter Selinger 2001-2017
</metadata>
<g transform="translate(0.000000,585.000000) scale(0.100000,-0.100000)"
fill="#000000" stroke="none">
<path d="M4472 5609 c-68 -34 -90 -76 -112 -220 -90 -586 -259 -981 -633
-1478 l-101 -134 -13 79 c-33 202 -91 323 -208 439 -92 91 -197 157 -349 219
-56 23 -106 45 -113 49 -11 7 -174 274 -228 375 -29 53 -51 67 -95 60 -13 -2
-32 -15 -43 -29 -17 -23 -18 -33 -9 -75 13 -59 9 -66 -12 -25 -29 56 -76 101
-105 101 -36 0 -67 -24 -76 -57 -7 -28 -7 -28 -31 19 -37 73 -84 96 -131 63
-35 -25 -38 -66 -8 -125 14 -28 30 -62 35 -76 9 -23 7 -23 -37 11 -103 79
-196 17 -148 -100 8 -19 8 -19 -12 -2 -34 30 -83 32 -117 6 -25 -20 -28 -27
-24 -69 l5 -47 -43 5 c-72 8 -112 -50 -84 -122 5 -14 7 -26 5 -26 -3 0 -31 20
-63 45 -74 59 -119 60 -147 4 -19 -36 -8 -67 42 -120 52 -55 64 -80 20 -42
-50 44 -82 51 -115 26 -38 -28 -40 -72 -7 -128 l26 -45 -29 0 c-49 0 -82 -57
-61 -104 11 -23 10 -29 -9 -46 -31 -29 -38 -66 -19 -105 l16 -34 -32 6 c-46 7
-87 -27 -87 -73 0 -27 12 -48 57 -101 31 -37 52 -68 47 -70 -56 -20 -82 -58
-71 -104 4 -13 89 -123 190 -244 128 -154 190 -237 206 -275 73 -175 220 -361
364 -459 114 -78 294 -143 433 -157 35 -4 64 -8 64 -10 0 -2 -40 -71 -90 -154
-222 -370 -483 -865 -531 -1005 -22 -65 -24 -85 -23 -260 0 -140 8 -251 28
-419 33 -279 46 -312 139 -351 75 -31 150 -13 204 48 56 64 57 79 27 344 -16
141 -28 295 -28 378 l-1 140 81 165 c173 353 649 1170 682 1170 10 0 68 -181
82 -256 19 -103 23 -253 10 -324 -24 -129 16 -232 108 -272 83 -37 178 -10
230 66 37 53 45 125 39 326 -8 263 -36 395 -143 658 -30 74 -54 138 -54 143 0
6 18 33 39 62 22 29 61 93 88 143 33 61 89 137 169 230 619 721 874 1180 1012
1819 42 193 65 350 59 402 -14 126 -150 199 -265 142z m-1645 -1405 c99 -32
223 -94 290 -144 102 -77 148 -241 140 -495 -6 -205 -21 -248 -128 -380 -71
-87 -151 -200 -184 -259 -16 -28 -131 -94 -203 -116 -81 -25 -139 -25 -234 -1
-191 49 -308 153 -408 362 -77 161 -101 345 -65 498 17 70 74 200 130 290 29
49 41 60 70 65 23 5 59 29 113 79 l78 72 76 0 c71 0 78 2 115 33 34 29 43 32
85 27 26 -3 82 -17 125 -31z"/>
<path d="M2583 3850 c-81 -33 -56 -140 32 -140 87 0 119 97 44 135 -32 17 -44
18 -76 5z"/>
<path d="M2841 3614 c-28 -36 -26 -70 5 -99 l26 -24 -21 -76 c-26 -94 -50
-141 -91 -180 -29 -28 -37 -30 -113 -32 -93 -3 -120 -19 -120 -73 0 -50 29
-70 110 -77 92 -8 156 13 223 74 62 56 91 105 123 208 48 157 42 239 -22 282
-47 32 -94 30 -120 -3z"/>
<path d="M2265 3538 c-68 -37 -84 -90 -40 -133 30 -31 50 -31 95 -4 43 27 50
36 50 74 0 36 -8 48 -37 64 -27 14 -42 14 -68 -1z"/>
</g>
</svg>
