<?xml version="1.0" standalone="no"?>
<!DOCTYPE svg PUBLIC "-//W3C//DTD SVG 20010904//EN"
 "http://www.w3.org/TR/2001/REC-SVG-20010904/DTD/svg10.dtd">
<svg version="1.0" xmlns="http://www.w3.org/2000/svg"
 width="585.000000pt" height="585.000000pt" viewBox="0 0 585.000000 585.000000"
 preserveAspectRatio="xMidYMid meet">
<metadata>
Created by potrace 1.14, written by Peter Selinger 2001-2017
</metadata>
<g transform="translate(0.000000,585.000000) scale(0.100000,-0.100000)"
fill="#000000" stroke="none">
<path d="M4460 5609 c-52 -32 -87 -85 -93 -145 -2 -17 -8 -37 -12 -44 -6 -9
-4 -11 5 -5 9 5 11 4 6 -4 -5 -7 -9 -22 -11 -34 -2 -12 -7 -38 -10 -57 -4 -19
-8 -44 -10 -55 -2 -11 -6 -36 -10 -55 -4 -19 -7 -43 -7 -52 0 -10 -3 -18 -8
-18 -5 0 -9 -8 -9 -17 0 -19 -5 -52 -16 -93 -3 -14 -8 -36 -11 -49 -3 -14 -7
-28 -10 -33 -3 -4 -7 -18 -10 -30 -9 -39 -12 -53 -14 -53 -1 0 -6 -17 -13 -47
-1 -7 -5 -17 -8 -23 -6 -9 -32 -82 -34 -95 -1 -3 -12 -27 -25 -55 -12 -27 -23
-56 -23 -62 0 -7 -4 -13 -9 -13 -4 0 -7 -3 -6 -7 1 -5 -10 -32 -25 -60 -15
-29 -28 -56 -28 -60 0 -5 -4 -12 -9 -18 -4 -5 -17 -26 -27 -45 -69 -124 -98
-172 -175 -283 -32 -47 -182 -252 -213 -292 -13 -16 -17 -17 -24 -6 -5 8 -7
20 -4 27 10 27 -40 211 -83 301 -65 137 -186 251 -364 344 -25 13 -47 24 -50
24 -12 4 -87 36 -103 46 -10 5 -22 7 -27 4 -6 -4 -10 -2 -10 3 0 6 -11 13 -24
16 -14 3 -29 18 -36 36 -7 16 -16 30 -21 30 -5 0 -9 4 -9 10 0 5 -18 39 -40
75 -22 36 -40 70 -40 75 0 6 -4 10 -9 10 -5 0 -11 8 -14 18 -8 25 -79 149 -99
172 -23 26 -68 26 -100 1 -22 -18 -25 -27 -22 -75 1 -31 -1 -56 -5 -56 -4 0
-18 20 -31 45 -28 55 -40 65 -77 69 -39 4 -58 -8 -73 -44 -16 -38 -26 -38 -33
-1 -8 39 -60 91 -91 91 -35 0 -76 -44 -76 -81 0 -17 11 -50 25 -75 14 -25 25
-49 25 -54 0 -18 -24 -11 -54 15 -29 24 -79 33 -102 17 -22 -15 -44 -58 -44
-85 0 -27 -2 -29 -30 -23 -16 3 -30 1 -30 -4 0 -5 -7 -7 -15 -4 -27 11 -65
-45 -65 -95 0 -27 -3 -29 -32 -27 -18 1 -38 -2 -45 -8 -7 -6 -19 -17 -28 -24
-9 -8 -15 -30 -15 -57 0 -25 -4 -45 -8 -45 -5 0 -28 17 -51 38 -29 26 -51 37
-74 37 -64 1 -98 -73 -61 -130 9 -14 14 -26 10 -26 -3 -1 -14 -2 -24 -3 -30
-2 -71 -28 -78 -48 -7 -24 4 -88 15 -88 4 0 13 -11 19 -24 10 -23 9 -25 -19
-31 -40 -9 -62 -45 -57 -92 4 -27 -1 -46 -14 -65 -18 -26 -23 -57 -16 -102 2
-13 -4 -20 -22 -22 -40 -6 -70 -26 -70 -46 0 -10 -5 -18 -10 -18 -20 0 21 -74
63 -116 43 -43 58 -74 35 -74 -31 -1 -61 -37 -61 -73 0 -42 4 -48 211 -295
116 -139 162 -202 193 -265 43 -90 42 -88 113 -197 49 -75 195 -225 228 -236
10 -3 18 -10 18 -15 0 -6 5 -7 10 -4 6 3 10 2 10 -2 0 -5 26 -23 59 -41 123
-66 293 -116 373 -110 55 4 56 -9 6 -81 -21 -30 -38 -60 -38 -68 0 -7 -4 -13
-9 -13 -5 0 -21 -24 -36 -52 -14 -29 -39 -73 -55 -98 -16 -25 -33 -52 -37 -60
-4 -8 -26 -48 -49 -87 -24 -40 -41 -73 -38 -73 3 0 -3 -12 -14 -28 -11 -15
-38 -61 -59 -102 -22 -41 -51 -93 -63 -115 -61 -108 -162 -320 -184 -387 -33
-98 -43 -237 -27 -394 31 -312 54 -493 68 -531 18 -51 79 -107 131 -120 79
-19 176 26 213 98 24 48 24 86 -1 296 -33 291 -42 436 -31 500 11 58 102 254
212 453 28 52 63 117 77 145 14 27 32 56 39 63 7 7 13 17 13 21 0 12 158 284
179 308 6 7 11 16 11 20 0 8 90 155 151 246 21 32 39 63 39 68 0 5 9 19 19 30
l19 21 15 -34 c43 -94 91 -370 82 -473 -16 -182 -16 -205 -5 -239 12 -38 71
-106 107 -125 26 -13 113 -15 145 -2 40 17 87 67 110 117 18 40 22 71 25 174
1 69 -2 163 -7 210 -5 47 -12 106 -15 132 -11 113 -82 335 -159 498 -31 65
-32 80 -8 106 36 40 70 92 112 169 38 70 121 182 185 251 11 12 27 30 35 40 8
11 65 80 125 153 61 74 133 167 162 205 29 39 56 76 60 81 53 67 153 213 179
260 6 11 36 61 66 110 30 50 69 119 87 155 18 36 36 72 41 80 8 14 22 44 68
150 11 25 23 56 27 70 4 14 11 30 15 35 4 6 15 37 25 70 10 33 21 64 26 69 4
5 5 15 2 22 -3 8 0 14 5 14 6 0 11 8 10 18 0 20 9 58 16 70 3 5 7 19 10 33 3
13 7 34 10 47 4 12 8 31 11 43 2 11 6 28 9 37 6 19 16 66 20 97 2 11 4 20 6
20 1 0 3 11 5 25 2 14 6 36 9 50 3 14 8 43 11 65 7 55 10 68 15 80 6 11 4 109
-2 136 -7 32 -53 88 -89 108 -51 29 -141 29 -189 0z"/>
</g>
</svg>
